<svg width="50" height="50" viewBox="0 0 50 50" fill="none" xmlns="http://www.w3.org/2000/svg">
<path d="M26.125 32.5C26.3554 32.7387 26.6712 32.8761 27.0029 32.8819C27.3346 32.8878 27.6551 32.7617 27.8938 32.5312C28.1325 32.3008 28.2698 31.9851 28.2757 31.6533C28.2816 31.3216 28.1554 31.0012 27.925 30.7625L21.7875 24.5125L27.9125 18.2625C28.1453 18.0283 28.276 17.7115 28.276 17.3813C28.276 17.051 28.1453 16.7342 27.9125 16.5C27.6797 16.2691 27.3654 16.1389 27.0375 16.1375C26.8721 16.1382 26.7085 16.1717 26.5562 16.2361C26.4038 16.3004 26.2658 16.3944 26.15 16.5125L19.1625 23.6625C18.9372 23.8956 18.8113 24.2071 18.8113 24.5312C18.8113 24.8554 18.9372 25.1669 19.1625 25.4L26.125 32.5Z" fill="white"/>
<path d="M25.325 45.3875C29.4636 45.3875 33.5092 44.1603 36.9503 41.861C40.3914 39.5617 43.0734 36.2937 44.6572 32.4702C46.2409 28.6466 46.6553 24.4393 45.8479 20.3802C45.0405 16.3212 43.0476 12.5927 40.1212 9.6663C37.1948 6.73989 33.4663 4.74697 29.4073 3.93958C25.3482 3.13218 21.1409 3.54657 17.3173 5.13033C13.4938 6.71409 10.2258 9.39611 7.92649 12.8372C5.62722 16.2783 4.39999 20.3239 4.39999 24.4625C4.40661 30.0101 6.61332 35.3286 10.5361 39.2514C14.4589 43.1742 19.7774 45.3809 25.325 45.3875ZM25.325 6.03751C28.9691 6.03751 32.5314 7.11812 35.5614 9.14268C38.5913 11.1672 40.9529 14.0448 42.3475 17.4116C43.742 20.7783 44.1069 24.483 43.396 28.0571C42.685 31.6312 40.9302 34.9142 38.3534 37.491C35.7767 40.0677 32.4936 41.8225 28.9195 42.5335C25.3454 43.2444 21.6408 42.8795 18.274 41.485C14.9073 40.0904 12.0297 37.7289 10.0052 34.6989C7.9806 31.6689 6.89999 28.1066 6.89999 24.4625C6.9066 19.5779 8.84993 14.8953 12.3039 11.4414C15.7578 7.98745 20.4404 6.04413 25.325 6.03751Z" fill="white"/>
</svg>
