<svg width="50" height="50" viewBox="0 0 50 50" fill="none" xmlns="http://www.w3.org/2000/svg">
<path d="M23.875 17.5C23.6446 17.2613 23.3288 17.1239 22.9971 17.1181C22.6654 17.1122 22.3449 17.2383 22.1062 17.4688C21.8675 17.6992 21.7302 18.0149 21.7243 18.3467C21.7184 18.6784 21.8446 18.9988 22.075 19.2375L28.2125 25.4875L22.0875 31.7375C21.8547 31.9717 21.724 32.2885 21.724 32.6187C21.724 32.949 21.8547 33.2658 22.0875 33.5C22.3203 33.7309 22.6346 33.8611 22.9625 33.8625C23.1279 33.8618 23.2915 33.8283 23.4438 33.7639C23.5962 33.6996 23.7342 33.6056 23.85 33.4875L30.8375 26.3375C31.0628 26.1044 31.1887 25.7929 31.1887 25.4688C31.1887 25.1446 31.0628 24.8331 30.8375 24.6L23.875 17.5Z" fill="white"/>
<path d="M24.675 4.61249C20.5364 4.61249 16.4908 5.83972 13.0497 8.13899C9.6086 10.4383 6.92659 13.7063 5.34283 17.5298C3.75907 21.3534 3.34468 25.5607 4.15208 29.6198C4.95947 33.6788 6.95239 37.4073 9.8788 40.3337C12.8052 43.2601 16.5337 45.253 20.5927 46.0604C24.6518 46.8678 28.8591 46.4534 32.6827 44.8697C36.5062 43.2859 39.7742 40.6039 42.0735 37.1628C44.3728 33.7217 45.6 29.6761 45.6 25.5375C45.5934 19.9899 43.3867 14.6714 39.4639 10.7486C35.5411 6.82582 30.2226 4.6191 24.675 4.61249ZM24.675 43.9625C21.0309 43.9625 17.4686 42.8819 14.4386 40.8573C11.4087 38.8328 9.04707 35.9552 7.65253 32.5884C6.25798 29.2217 5.89311 25.517 6.60404 21.9429C7.31497 18.3688 9.06979 15.0858 11.6466 12.509C14.2233 9.93226 17.5064 8.17745 21.0805 7.46652C24.6546 6.75559 28.3592 7.12046 31.726 8.51501C35.0927 9.90955 37.9703 12.2711 39.9948 15.3011C42.0194 18.3311 43.1 21.8934 43.1 25.5375C43.0934 30.4221 41.1501 35.1047 37.6961 38.5586C34.2422 42.0126 29.5596 43.9559 24.675 43.9625Z" fill="white"/>
</svg>
