<svg width="46" height="46" viewBox="0 0 46 46" fill="none" xmlns="http://www.w3.org/2000/svg">
<g filter="url(#filter0_d_21_12824)">
<path d="M36.4819 31.7539L23.728 19L36.4819 6.24609C37.8589 4.86914 37.8589 2.65234 36.4819 1.27539C35.105 -0.101562 32.8882 -0.101562 31.5112 1.27539L18.7573 14.0293L6.00342 1.27539C4.62646 -0.101562 2.40967 -0.101562 1.03271 1.27539C-0.344238 2.65234 -0.344238 4.86914 1.03271 6.24609L13.7866 19L1.03271 31.7539C-0.344238 33.1309 -0.344238 35.3477 1.03271 36.7246C2.40967 38.1016 4.62646 38.1016 6.00342 36.7246L18.7573 23.9707L31.5112 36.7246C32.8882 38.1016 35.105 38.1016 36.4819 36.7246C37.8491 35.3477 37.8491 33.1211 36.4819 31.7539Z" fill="white"/>
</g>
<defs>
<filter id="filter0_d_21_12824" x="0" y="0.242676" width="45.4146" height="45.4146" filterUnits="userSpaceOnUse" color-interpolation-filters="sRGB">
<feFlood flood-opacity="0" result="BackgroundImageFix"/>
<feColorMatrix in="SourceAlpha" type="matrix" values="0 0 0 0 0 0 0 0 0 0 0 0 0 0 0 0 0 0 127 0" result="hardAlpha"/>
<feOffset dx="4" dy="4"/>
<feGaussianBlur stdDeviation="1.95"/>
<feComposite in2="hardAlpha" operator="out"/>
<feColorMatrix type="matrix" values="0 0 0 0 0 0 0 0 0 0 0 0 0 0 0 0 0 0 0.25 0"/>
<feBlend mode="normal" in2="BackgroundImageFix" result="effect1_dropShadow_21_12824"/>
<feBlend mode="normal" in="SourceGraphic" in2="effect1_dropShadow_21_12824" result="shape"/>
</filter>
</defs>
</svg>
